<?xml version="1.0" encoding="UTF-8"?>
<svg id="Layer_1" data-name="Layer 1" xmlns="http://www.w3.org/2000/svg" viewBox="0 0 522.92 1017.84">
  <defs>
    <style>
      .cls-1 {
        fill: #e21722;
      }

      .cls-2 {
        fill: #c90919;
      }
    </style>
  </defs>
  <path class="cls-2" d="M202.67,1016.66c-17.79-2.64-39.19-10.94-54.94-21.52-12.38-8.29-28.37-25.49-35.34-37.87-5.89-10.46-9.86-15.27-17.31-20.8-5.05-3.85-5.65-7.21-2.4-14.55,2.28-5.29,2.52-7.57,1.92-15.03-1.44-15.99-3.01-21.04-8.78-27.17-6.85-7.33-6.85-10.22.24-18.15,3.01-3.37,6.01-7.57,6.61-9.26.96-2.52,4.69-23.68,4.69-26.81,0-.48-1.92-3.61-4.21-6.97s-4.21-7.33-4.21-9.02c0-3.01,3.85-6.85,10.7-10.58,2.04-1.08,4.81-3.85,6.13-6.01,3.01-4.93,7.09-17.79,8.05-25,.6-4.93.24-5.89-3.61-10.58-5.29-6.37-6.25-9.14-4.45-13.46.96-2.4,3.25-4.21,7.45-6.01,8.17-3.49,11.3-6.97,13.46-14.55,3.97-14.55,3.85-14.79-2.89-22-8.42-8.9-8.42-12.5.36-18.03,3.49-2.28,7.09-5.05,8.05-6.13,2.16-2.64,3.25-23.2,1.44-26.69-.72-1.32-4.57-3.61-8.54-5.05-10.82-3.97-14.07-10.82-8.29-16.95,9.02-9.38,9.14-10.7,4.33-24.28-2.76-7.69-4.21-8.42-9.38-4.21-1.8,1.44-7.57,5.65-12.62,9.26-5.17,3.61-11.06,8.05-13.22,9.98-2.16,1.8-4.33,3.25-4.81,3.25-.36,0-3.01,1.8-5.77,3.97-2.76,2.04-6.01,4.45-7.09,5.05-1.08.72-7.09,5.05-13.22,9.74-13.46,10.22-15.99,11.66-19.11,10.7-6.01-1.92-24.88-48.93-30.9-77.54-7.45-34.74-6.61-77.54,2.4-114.08,2.89-11.9,4.81-15.75,8.17-15.75,1.2,0,16.71,6.61,34.5,14.55,33.06,15.03,50.73,22.72,51.57,22.72.96,0,.48-4.69-.6-5.41-.6-.36-1.8-2.52-2.52-4.81-1.2-3.61-.96-4.93,1.8-10.82,2.52-5.29,3.01-7.69,2.4-11.06-1.08-5.89-8.17-19.72-12.74-25-3.49-3.97-4.21-4.21-10.7-4.21-11.9,0-16.83-3.13-16.83-10.82,0-3.49,1.08-5.89,4.21-9.86,6.13-7.45,8.17-12.5,7.21-17.67-.96-5.17-6.97-22.72-9.5-27.53-2.76-5.29-4.81-6.37-14.79-8.17-10.94-1.8-14.79-5.05-14.79-11.9,0-4.21.24-4.57,12.38-15.27,3.85-3.25,4.81-5.05,5.29-9.38.72-6.37-2.52-32.46-4.45-36.06-.72-1.44-5.29-4.33-10.1-6.49-9.26-4.21-13.94-8.78-13.94-13.7,0-4.09,6.97-10.34,13.7-12.26,7.81-2.16,11.06-5.65,13.82-15.15,3.73-12.38,6.01-27.05,4.69-30.53-.6-1.68-3.97-5.77-7.57-9.26s-6.85-7.57-7.21-9.14c-2.4-9.38,2.4-13.82,14.79-13.94,4.21-.12,9.14-.96,10.94-1.92,4.69-2.4,10.46-9.26,17.19-20.68q8.66-14.55,4.33-23.32c-4.21-8.42-5.05-16.47-2.16-17.91,6.85-3.49,8.66-3.85,14.07-3.13,17.43,2.52,19.11,2.4,24.04-1.32,2.52-1.92,7.57-5.77,11.18-8.54,3.61-2.64,8.17-6.49,10.1-8.54,3.37-3.49,3.61-4.33,3.61-14.07.12-9.86.24-10.46,3.61-13.34,4.69-3.97,9.62-3.25,19.11,3.25,4.69,3.13,8.54,4.81,11.06,4.81,5.29,0,17.31-2.28,21.64-4.21,14.43-6.13,14.91-6.73,17.31-16.83,2.04-8.54,5.17-11.42,12.26-11.42,5.29,0,6.01.36,9.74,5.05,2.16,2.76,5.65,6.73,7.57,8.78,3.97,4.21,6.01,4.69,28.25,6.13,15.51.96,15.63.96,25.12-23.2,4.09-10.46,7.93-19.84,8.42-20.8,1.68-3.25,6.85-2.76,10.94.84l3.85,3.49,2.16,22.72c1.2,12.62,2.52,23.68,3.01,24.76.72,1.8,16.35,10.94,24.4,14.19,4.57,1.92,3.13,2.89,23.92-17.07l12.14-11.78,3.73,1.92c2.04.96,3.73,2.64,3.73,3.73,0,.96,1.56,2.76,3.61,3.85,1.92,1.08,3.61,2.52,3.61,3.01,0,.6-3.01,8.42-6.73,17.43-11.3,27.41-10.94,23.08-3.13,38.83,3.85,7.57,7.81,16.47,8.9,19.72,4.21,12.5,15.27,21.04,27.05,21.04,10.7,0,15.75,6.97,11.78,16.35-1.56,3.37-2.4,10.94-3.13,27.17-.96,19.23-.96,23.08.72,26.93,2.64,6.37,2.28,7.69-3.01,14.19-2.64,3.13-4.81,6.49-4.81,7.45,0,3.37,6.01,17.79,10.34,24.88,11.18,18.27,29.33,37.03,42.56,43.76,6.85,3.61,8.54,3.97,18.63,3.97,12.62,0,15.03,1.32,15.03,8.54,0,5.41-2.4,8.66-13.22,18.03-4.93,4.33-10.82,10.22-12.98,13.22-9.26,12.5-11.54,14.67-19.35,18.15-7.33,3.37-8.54,3.61-20.56,3.13-10.58-.36-13.34-.84-16.95-3.13-6.61-3.97-8.78-9.62-7.93-20.2.6-8.42.48-9.02-3.01-13.94-6.13-8.54-27.29-28.85-39.43-37.75-6.25-4.69-17.31-12.14-24.64-16.47-13.94-8.54-19.11-9.86-23.92-6.25-1.8,1.32-6.01,1.8-16.71,1.8-23.68,0-37.03-4.81-50.49-18.15-5.41-5.41-9.26-10.58-11.66-15.75-3.61-7.69-6.73-22.96-5.65-28.13,1.32-7.09-8.42-.24-14.55,10.22-2.76,4.81-3.25,6.85-3.25,15.75,0,8.05.6,11.42,2.64,15.99,5.05,10.82,13.7,22.36,26.21,34.86,8.05,8.17,14.43,15.87,18.15,22,6.97,11.66,14.91,22,19.59,26.09,2.04,1.68,6.49,3.97,9.98,5.05,8.66,2.76,12.26,6.85,11.18,12.5-2.64,15.15-2.16,16.95,9.62,34.98,4.81,7.69,6.25,8.78,14.43,12.86,7.09,3.49,9.38,5.41,10.94,8.66,1.92,4.09,1.92,4.33-1.92,12.02l-4.09,7.81,2.04,9.74c1.08,5.29,3.25,13.7,4.69,18.63,2.4,8.29,3.37,9.74,11.3,17.43,11.66,11.18,12.02,14.31,2.76,24.04-7.45,7.81-8.17,10.7-8.29,31.62,0,14.55.12,15.03,4.09,23.2,3.61,7.33,3.97,8.9,2.89,12.14-.72,2.04-2.89,4.57-4.93,5.65-7.57,4.09-12.62,9.86-18.87,21.88-5.77,10.94-7.69,13.22-20.2,24.88-13.82,12.86-22.12,22.48-26.09,30.17-1.56,3.25-1.92,5.65-1.2,11.66.48,4.69.24,8.42-.6,9.98-1.44,2.89-9.98,7.33-14.07,7.33s-12.98,8.66-18.51,18.15c-5.77,9.62-6.85,14.91-4.21,20.08,3.97,7.69.96,15.87-5.77,15.87-1.68,0-3.25.48-3.61,1.08s-2.52,1.44-4.69,1.8c-4.33.84-10.34,7.69-15.15,17.19-2.89,5.77-3.13,9.5-1.08,16.11,1.8,6.13,0,10.22-4.93,11.3-2.04.48-3.97,1.32-4.33,1.92-.48.6-1.92,1.08-3.49,1.08-5.53,0-17.55,16.59-17.55,24.28,0,2.04.96,5.17,2.04,6.97,1.8,3.25,1.8,3.61,0,6.49-1.2,1.68-3.61,3.37-5.41,3.73-6.25,1.32-9.26,3.97-12.74,10.7-4.69,9.14-5.29,15.87-2.04,21.16,1.32,2.28,2.52,4.57,2.52,5.17,0,.48-2.89,3.49-6.25,6.85l-6.37,5.89v23.2l4.69,3.97c4.69,3.97,4.81,3.97,3.37,8.78-1.92,6.49-1.8,10.46.48,15.03,5.41,10.46,15.15,18.75,28.25,24.4,9.02,3.85,25.61,5.17,35.82,3.01,15.15-3.25,28.73-13.58,34.86-26.57,4.21-9.02,5.05-23.8,1.68-31.38-5.53-12.5-13.58-17.91-26.45-17.91-14.91.12-23.2,6.49-24.16,18.63-.84,10.34,4.81,17.43,14.07,17.43,4.57,0,7.93-4.57,6.85-9.02-.6-2.4-1.56-3.01-4.33-3.01-3.13,0-3.61-.48-3.61-3.49,0-4.69,2.89-6.73,9.74-6.73,4.45,0,6.37.72,8.9,3.01,6.25,5.65,8.17,15.03,5.05,23.8-2.28,6.13-11.06,15.51-17.31,18.27-8.66,3.85-21.76,3.37-31.02-.96-26.09-12.5-33.54-48.57-15.63-75.61,4.69-6.97,18.75-19.35,23.44-20.44,1.68-.36,4.69-1.56,6.61-2.76,4.21-2.4,16.71-4.81,25.49-4.81,3.25,0,10.1,1.08,15.03,2.28,22.36,5.77,38.59,19.11,49.17,40.39,5.77,11.78,8.29,22.84,8.29,37.63,0,28.13-9.74,50.37-31.5,71.41-15.03,14.55-33.06,23.56-57.22,28.49-7.33,1.56-34.74,1.56-45.2,0h0ZM150.01,938.64c14.43-7.45,16.11-8.78,15.15-11.3-.6-1.56-1.68-1.8-5.17-1.2-6.85,1.08-7.33,1.44-7.33,5.17,0,6.25-8.78,8.42-13.94,3.61-2.76-2.52-7.69-2.28-7.69.36,0,2.04,4.93,9.38,6.25,9.38.6,0,6.37-2.76,12.74-6.01h0ZM128.01,906.43c.72-.48,2.16-2.28,3.37-4.09,1.8-2.89,2.89-3.37,7.93-3.37,3.61,0,6.37.6,7.33,1.8.96,1.08,2.64,1.44,5.17.96,7.69-1.44,8.05-1.92,8.05-12.5v-9.62l-7.45.36c-7.09.36-7.45.48-8.29,3.85-1.2,4.45-2.89,5.53-8.66,5.53-3.97,0-4.69-.48-6.49-4.21-2.04-4.33-2.4-4.33-10.34-2.16-2.4.6-2.4,3.61.48,18.15,1.08,5.65,1.56,6.25,4.45,6.25,1.8,0,3.85-.48,4.45-.96h0ZM167.44,844.52c1.92-5.17,3.25-9.74,2.89-9.98-.24-.36-3.85-1.44-7.93-2.4-7.33-1.92-7.57-1.92-10.22.72-2.28,2.04-3.97,2.52-8.66,2.16-5.41-.36-5.89-.6-6.85-4.09-1.08-3.49-1.56-3.85-7.33-4.45-3.37-.36-6.49-.24-6.85.12-1.32,1.56-5.05,22.72-4.33,24.76,1.2,3.13,7.81,2.52,11.18-1.08,2.16-2.4,3.97-3.01,8.29-3.01,4.93,0,5.77.36,7.57,3.61,2.04,3.61,2.16,3.61,10.46,3.37l8.29-.36,3.49-9.38h0ZM189.8,797.27c3.49-6.25,6.25-11.54,6.01-11.66-.24-.24-5.29-1.8-11.06-3.73l-10.7-3.37-2.64,2.52c-1.8,1.68-4.21,2.52-7.57,2.52-5.53,0-7.21-1.44-7.81-6.49-.36-3.25-.96-3.61-9.14-5.53-5.65-1.32-9.02-1.68-9.5-.84-1.8,3.01-8.54,25.61-7.81,26.33.48.48,3.49,1.56,6.61,2.4,4.81,1.2,6.01,1.2,6.73-.12.6-.84,3.61-1.92,6.85-2.28,5.41-.6,6.01-.36,8.9,3.25,2.4,2.76,5.41,4.45,10.94,6.01,13.46,3.85,12.98,4.09,20.2-9.02ZM217.93,747.74c3.73-6.61,6.85-12.5,6.85-13.1,0-.72-6.61-3.49-14.67-6.25-13.22-4.33-14.91-4.69-16.71-3.01-1.32,1.2-3.85,1.68-7.69,1.44-5.29-.36-5.77-.6-7.09-4.45-1.32-3.97-1.8-4.21-12.14-6.85-5.89-1.56-11.66-2.76-12.62-2.89-1.44,0-2.76,3.01-4.69,10.58-4.69,17.43-4.69,16.47,1.32,18.63,11.3,4.09,12.38,4.21,15.51,2.52,6.37-3.49,16.71-.48,16.71,4.93,0,1.44,21.88,9.86,26.57,10.1,1.08.12,4.45-4.45,8.66-11.66h0ZM241.86,704.59c1.08-1.2,4.93-7.57,8.66-14.19l6.73-12.02-2.89-1.44c-1.56-.84-9.62-3.37-17.91-5.77-8.42-2.28-16.47-4.69-18.03-5.29-2.04-.84-3.49-.48-5.77,1.2-1.92,1.44-4.93,2.28-9.02,2.28-6.13,0-6.25-.12-8.05-4.57l-1.8-4.57-17.67-3.97c-9.62-2.16-17.67-3.85-17.91-3.61-.24.24-.72,6.49-1.08,13.94-.48,9.38-.24,13.94.72,15.15.84,1.08,6.85,3.49,13.46,5.41,10.46,3.13,12.38,3.37,14.43,1.92,3.01-2.16,14.31-2.16,15.99-.12.72.72,1.56,2.89,2.04,4.57.72,2.76,2.4,3.61,15.99,8.05,17.43,5.53,19.59,5.89,22.12,3.01ZM275.76,646.64c1.08-1.2,5.29-7.33,9.14-13.46l7.09-11.3-14.67-3.97c-25.49-6.85-27.77-7.57-31.5-11.06-1.92-1.8-5.77-4.45-8.54-5.77l-4.81-2.52-3.37,3.61c-2.89,3.01-4.21,3.49-9.62,3.49-6.97,0-10.94-2.16-12.02-6.49-.72-2.76-1.44-3.01-10.58-3.61-5.53-.36-17.79-1.32-27.29-1.92-9.5-.72-17.55-1.08-17.79-.72-.24.24.72,6.61,2.28,14.07l2.89,13.7,5.89,2.04c3.37,1.08,12.38,3.49,20.08,5.17l14.07,3.25,3.25-2.52c2.28-1.8,4.93-2.52,9.38-2.52,5.29,0,6.73.48,9.38,3.37,1.68,1.8,3.37,4.33,3.61,5.53.24,1.92,4.09,3.25,23.2,8.05,12.62,3.13,23.92,5.77,25.37,5.77,1.32.12,3.49-.96,4.57-2.16h0ZM53.72,602.88c3.13-1.56,9.02-4.81,12.98-7.09,3.97-2.4,11.54-6.73,16.71-9.86,5.29-3.01,10.46-6.37,11.42-7.33,1.68-1.56,1.08-1.8-5.29-1.8-7.69,0-13.82,1.68-18.63,5.17-1.56,1.08-4.09,2.04-5.53,2.04s-4.57,1.32-6.97,3.01-5.41,3.01-6.61,3.01c-2.76,0-13.34,6.97-15.03,9.98-1.08,1.8-.72,2.64,1.68,4.57,3.49,2.89,6.73,2.52,15.27-1.68h0ZM323.6,573.55c2.76-3.13,6.49-15.99,8.66-29.81,3.25-21.04,3.25-20.92.84-22.12-1.2-.72-21.52-1.32-47-1.44l-44.72-.12-2.64,3.01c-3.73,4.45-6.97,5.65-14.55,5.65-6.13,0-7.21-.36-10.34-3.73-1.92-2.04-3.49-4.21-3.49-4.81,0-.72-15.39-.96-36.91-.84l-37.03.36-.36,4.57c-.48,5.77,2.89,23.8,5.41,29.09,1.08,2.28,2.89,4.45,3.85,4.69,1.08.36,13.34,1.68,27.17,3.13,13.94,1.32,27.29,2.64,29.69,2.89,3.25.36,4.93-.12,6.61-1.92,3.49-3.97,8.29-5.77,14.91-5.77,7.45,0,13.34,3.25,15.75,8.42.84,2.04,2.04,3.61,2.64,3.61,4.33,0,76.1,6.37,78.98,7.09.36,0,1.56-.84,2.52-1.92h0ZM55.52,567.66c10.1-3.01,19.47-6.01,20.8-6.49,1.32-.48,4.33-1.68,6.61-2.52,5.41-1.92,7.21-3.37,7.21-5.65,0-1.56-1.68-1.68-12.26-.96-6.73.36-12.86,1.32-13.46,1.92-.72.72-3.01,1.2-5.29,1.2-8.17,0-28.37,4.93-31.14,7.45-3.49,3.25-3.49,6.37-.12,8.66,4.09,2.89,7.69,2.4,27.65-3.61h0ZM78.73,532.32c.36-.6,2.04-1.2,3.61-1.2,3.37,0,5.05-2.04,3.13-3.97-1.8-1.8-34.02-5.53-48.21-5.53-9.26-.12-12.02.36-14.31,2.16-3.37,2.52-2.76,6.25,1.44,8.29,3.49,1.68,53.26,1.92,54.34.24h0ZM90.63,509.72c.84-1.32-.6-3.25-3.49-4.81-6.37-3.37-49.65-15.87-54.82-15.87-9.38,0-11.54,6.85-3.37,11.06,10.58,5.41,59.51,13.1,61.67,9.62ZM211.08,483.03c4.21-4.69,4.69-4.81,11.9-4.81,7.93,0,12.98,1.8,17.19,6.37,2.4,2.52,3.25,2.76,10.7,1.92,4.57-.48,19.84-2.04,34.02-3.37,34.26-3.37,45.92-4.69,46.64-5.53,1.08-1.08-8.9-35.46-10.94-37.39-.36-.36-7.33.24-15.39,1.32-21.04,2.76-72.37,9.02-74.05,9.02-.84,0-1.56.72-1.56,1.68s-1.68,3.37-3.61,5.53c-3.49,3.85-3.85,3.85-12.5,3.37-6.61-.24-9.62-.96-11.42-2.64-2.76-2.52.6-3.25-36.18,8.42-6.97,2.28-13.1,4.09-13.7,4.09-.48,0-3.61,1.2-6.85,2.52-4.93,2.16-5.89,3.13-5.89,5.77,0,7.69.24,7.81,45.44,8.29l21.88.24,4.33-4.81h0ZM168.29,434.22c8.29-2.4,16.59-4.57,18.39-4.93,2.16-.48,3.97-1.8,4.81-3.85.72-1.68,2.64-4.57,4.33-6.37,2.64-3.01,3.73-3.37,11.18-3.37,5.89,0,9.62.72,12.98,2.4q4.81,2.4,16.47.12c6.49-1.32,18.03-3.49,25.61-4.93,7.57-1.32,18.75-3.61,24.64-4.81,6.01-1.32,12.86-2.64,15.39-3.01l4.57-.72-7.57-14.31c-4.21-7.93-8.42-15.51-9.38-16.83l-1.92-2.52-15.51,3.13c-8.66,1.8-22.6,4.57-31.26,6.13-8.54,1.56-22.48,4.33-31.02,5.89-8.42,1.68-15.51,3.01-15.87,3.01s-.6.96-.6,2.16-1.08,3.37-2.4,4.81c-2.04,2.16-3.85,2.64-9.26,2.64-4.21,0-7.45-.6-8.66-1.68-1.68-1.56-4.09-1.08-19.35,3.61-23.44,7.33-27.65,9.02-27.65,10.58,0,1.08,1.8,6.49,10.22,30.41.36,1.08,2.64.84,8.66-.96,4.45-1.32,14.91-4.33,23.2-6.61h0ZM134.14,373.76c7.81-1.92,17.07-4.09,20.56-4.93,4.93-1.08,6.25-1.92,6.85-4.33,1.44-5.41,4.93-7.69,12.14-7.69,3.61,0,8.29.84,10.58,1.92,3.73,1.8,4.81,1.68,22.48-2.52,10.22-2.52,24.28-5.77,31.26-7.45,21.16-4.93,29.09-7.57,28.37-9.38-1.08-2.89-12.38-18.99-16.59-23.68-3.85-4.45-4.09-4.45-9.38-3.37-3.01.72-12.98,2.52-22.24,4.21-57.34,10.22-59.51,10.7-59.51,12.98,0,5.17-2.16,6.85-9.02,6.85-3.61,0-7.81-.6-9.5-1.32-2.4-1.08-4.93-.96-11.78.6-13.82,3.25-21.4,5.89-21.4,7.21,0,2.16,11.42,34.38,12.14,34.38.36,0,7.21-1.56,15.03-3.49h0ZM119.48,305.59c5.89-.84,10.7-1.8,10.82-1.92,2.64-6.61,3.85-7.57,10.34-7.93,5.41-.24,7.21.12,9.38,2.28l2.76,2.52,23.08-3.13c12.74-1.68,26.09-3.61,29.69-4.33,3.61-.6,10.22-1.44,14.79-1.92,4.45-.36,8.05-1.2,8.05-1.8s-2.4-4.57-5.29-8.78c-2.89-4.21-5.41-8.17-5.65-8.9-.36-.72-9.86-.84-28.13-.12-15.15.48-41.71.96-59.03.96-23.2.12-31.86.48-33.3,1.68-1.92,1.32-2.04,2.76-.84,16.47.84,8.29,1.56,15.75,1.92,16.59.48,1.56.6,1.56,21.4-1.68h0ZM212.28,250.78c-.36-1.56-.72-5.53-.72-9.02v-6.25l-5.65-.72c-7.45-.96-27.41-6.13-59.87-15.63-3.25-.96-10.1-2.76-15.03-4.09-4.93-1.44-12.5-3.49-16.71-4.81-4.33-1.32-7.81-2.28-7.93-2.16s-1.44,4.57-2.89,9.86c-1.56,5.29-3.61,12.02-4.45,14.91-.96,3.01-1.68,6.01-1.68,6.85,0,1.92,14.67,5.05,30.65,6.49,7.33.6,21.64,1.92,31.86,3.01,16.71,1.68,40.63,3.61,49.77,4.09,3.01.12,3.37-.24,2.64-2.52ZM216.01,214.95l2.64-6.01h-4.69c-2.52,0-4.81-.48-5.05-1.08-.12-.48-6.25-4.93-13.58-9.74-7.21-4.81-14.55-9.62-16.23-10.7-18.39-12.62-24.28-16.71-29.45-20.56-3.25-2.4-8.05-5.65-10.46-7.09l-4.45-2.64-7.21,11.18c-8.29,12.74-8.54,12.02,3.97,17.31,3.37,1.44,13.7,6.01,22.96,10.1s20.08,8.78,24.04,10.34c3.97,1.68,8.9,3.85,10.82,4.81,4.33,2.04,22.6,9.86,23.44,9.98.36,0,1.8-2.64,3.25-5.89h0ZM395.85,218.44c5.53-2.76,11.66-9.98,13.58-15.87,3.97-11.9-.72-24.28-11.3-30.05-7.09-3.85-9.62-3.97-15.63-.96-10.82,5.53-16.23,17.31-12.98,28.25,4.45,14.67,16.83,23.44,26.33,18.63h0ZM225.99,197.28c0-.84-6.01-10.46-13.22-21.52-7.33-11.06-16.11-25-19.47-31.02-3.37-6.01-6.49-11.18-6.97-11.54-.36-.36-1.92-2.52-3.37-4.81-6.01-9.5-4.81-9.62-17.07.12l-11.06,8.78,2.76,2.28c1.56,1.32,3.37,3.61,4.09,5.17.6,1.44,5.53,6.61,10.82,11.42,35.22,31.74,45.08,41.11,45.08,42.92,0,.84.6,1.44,1.2,1.44.72,0,1.2,1.2,1.2,2.76,0,2.52.12,2.4,3.01-.96,1.56-1.92,2.89-4.21,3.01-5.05h0ZM250.39,178.65c-3.49-24.28-10.58-63.23-11.66-64.07-.84-.6-2.16-5.05-3.01-9.74l-1.44-8.54-7.45,2.04c-4.09,1.2-11.3,3.25-16.11,4.69l-8.54,2.52,2.16,6.97c1.08,3.73,5.65,14.31,10.1,23.32,4.33,9.02,7.93,16.71,7.93,17.07,0,1.56,12.98,30.77,14.31,32.46,1.32,1.56,2.28,1.44,7.69-1.68,3.49-2.04,6.13-4.33,6.01-5.05h0ZM342.6,141.62c0-.6,1.56-1.92,3.61-3.01,1.92-.96,5.29-3.73,7.57-6.01,2.28-2.28,4.93-4.21,5.89-4.21,1.08,0,3.13-.96,4.69-2.28l2.76-2.28-4.09-3.37c-2.16-1.92-4.93-4.09-6.01-4.93-1.8-1.32-36.55-15.99-37.87-15.99-.36,0-.6.72-.6,1.56,0,2.04-6.97,18.99-8.78,21.04-.96,1.32-3.13,1.56-8.29,1.08-3.73-.36-7.45-.96-8.29-1.44-1.08-.72-1.2-4.45-.6-14.43l.84-13.46-6.37-.72c-3.49-.48-10.94-.84-16.59-.84h-10.22l.12,15.99c0,8.66.24,18.27.36,21.28l.24,5.41,2.04-3.25c2.28-3.85,5.41-4.21,12.98-1.56,5.41,1.8,12.26.72,16.35-2.76,1.56-1.32,3.97-1.56,10.22-.84,8.42.84,15.39,4.21,16.59,7.93.48,1.44,2.76,2.16,8.78,2.64,6.37.48,8.29,1.08,9.74,3.13,1.68,2.52,4.93,3.49,4.93,1.32h0Z"/>
  <g>
    <path class="cls-1" d="M129.46,943.21c-2.4-4.21-4.45-8.17-4.45-9.02,0-2.04,4.57-4.81,9.62-5.77,3.49-.6,4.69-.24,7.09,2.28,3.61,3.85,6.97,2.4,7.57-3.13.36-3.61.72-3.97,5.77-4.81,3.01-.48,6.85-1.08,8.66-1.44,2.76-.6,3.61,0,5.17,2.89,3.01,5.77,2.28,7.81-3.97,11.78-6.01,3.97-28.01,14.67-29.93,14.67-.6,0-3.13-3.37-5.53-7.45h0Z"/>
    <path class="cls-1" d="M116.71,909.55c-1.44-3.85-3.73-18.99-3.73-24.76s.72-6.01,10.7-7.09l6.73-.6,2.04,4.33c1.2,2.4,2.52,4.33,3.01,4.33,2.16-.12,4.09-2.28,5.05-5.53l.84-3.49h11.42c8.29,0,11.3.36,11.18,1.56-.12.72-.24,6.61-.24,12.86-.24,13.1-.48,13.34-11.9,14.55-5.65.6-7.33.36-8.66-1.2-2.52-3.01-6.01-2.28-8.29,1.68-2.28,3.97-2.89,4.33-11.3,5.53-5.29.72-5.77.48-6.85-2.16h0Z"/>
    <path class="cls-1" d="M141.6,854.49c-2.52-4.45-5.05-4.57-8.66-.6-2.4,2.52-3.85,3.01-10.22,3.01-10.34,0-10.82-1.44-7.33-19.35,1.56-7.57,3.13-14.19,3.61-14.79.6-.48,5.29-.6,10.58-.12,9.5.84,9.62.84,10.7,4.57,1.44,5.29,4.93,5.65,8.9.96l3.13-3.85,7.69,2.28c4.21,1.32,9.62,2.89,11.9,3.49,5.05,1.32,5.05,2.04-.48,16.95l-3.85,10.46-11.9.36-12.02.24-2.04-3.61h0Z"/>
    <path class="cls-1" d="M169.01,810.62c-8.9-2.28-11.3-3.49-13.7-6.61-2.16-2.89-3.49-3.49-5.53-2.89-1.32.48-3.01,1.56-3.49,2.4-1.2,2.16-4.93,2.16-12.98-.24-10.7-3.13-10.7-2.89-4.93-20.56,2.76-8.42,5.53-16.11,6.13-16.95.84-1.32,3.13-1.08,12.86,1.32,11.78,2.89,11.9,3.01,12.5,6.85.36,2.16,1.56,4.57,2.64,5.29,1.8,1.08,2.89.6,5.89-2.4l3.73-3.73,13.82,4.45c7.57,2.52,14.31,5.05,15.03,5.77.84.84-.84,5.17-5.53,13.94-3.73,6.97-7.69,13.46-8.66,14.55-2.4,2.4-5.05,2.16-17.79-1.2h0Z"/>
    <path class="cls-1" d="M194.01,759.52c-12.14-3.97-14.79-5.29-15.39-7.57-.36-1.44-1.8-3.37-3.13-4.21-2.16-1.32-3.13-1.2-6.73.96l-4.21,2.4-10.22-3.01c-9.86-3.13-13.7-5.41-13.7-8.29,0-.72.84-4.69,1.92-8.54,1.08-3.97,2.76-10.7,3.97-15.03,2.52-9.62,2.89-9.74,21.16-5.05,12.86,3.37,13.22,3.61,14.55,7.57,1.68,5.05,4.09,5.65,8.66,2.28l3.49-2.52,17.19,5.77c9.62,3.25,17.79,6.61,18.39,7.69.96,1.56-.36,4.93-5.65,14.55-3.85,6.85-7.69,13.34-8.42,14.43-2.76,3.73-6.97,3.49-21.88-1.44h0Z"/>
    <path class="cls-1" d="M235,710.6c-1.32-.24-9.5-2.76-18.27-5.41-14.19-4.45-15.87-5.17-16.59-8.05-.48-1.68-1.32-3.85-2.04-4.57-1.92-2.4-6.73-1.8-9.5.96l-2.52,2.52-15.63-4.57c-10.58-3.01-15.87-5.17-16.71-6.73-1.8-3.37,0-35.82,2.04-36.67.84-.36,10.58,1.44,21.52,3.97l20.08,4.57,1.8,4.57c2.16,5.53,5.05,5.89,10.7,1.56l3.97-3.01,9.38,2.89c5.17,1.56,14.43,4.33,20.68,6.13,13.7,3.85,18.15,6.01,18.15,8.78,0,2.52-13.7,27.41-17.19,31.26-2.4,2.52-4.69,3.01-9.86,1.8h0Z"/>
    <path class="cls-1" d="M244.62,647.24c-21.28-5.29-25.37-6.61-25.61-8.66-.72-3.49-6.37-8.9-9.38-8.9-1.44,0-4.45,1.44-6.49,3.25-4.33,3.61-1.44,3.85-28.73-2.52-22.48-5.29-20.56-3.61-24.52-22.96-2.4-11.3-3.01-16.95-2.16-17.79s8.17-.72,23.2.24c40.39,2.52,39.31,2.4,40.15,5.65.84,3.49,4.81,6.49,8.42,6.49,1.56,0,4.45-1.92,6.61-4.21,2.28-2.28,4.57-4.21,5.29-4.21,2.64,0,14.67,6.37,18.03,9.62,3.73,3.49,6.85,4.57,31.26,10.94,7.93,2.04,15.15,3.97,15.99,4.21,2.4.72.96,3.97-7.69,17.67-9.5,14.91-12.02,17.67-15.99,17.55-1.68,0-14.43-2.89-28.37-6.37h0Z"/>
    <path class="cls-1" d="M307.13,577.88c-9.26-.96-66.36-5.89-68.64-5.89-.6,0-1.8-1.56-2.64-3.61-1.8-3.97-8.17-8.42-12.14-8.42-3.37,0-8.54,2.64-11.54,6.01-2.16,2.4-3.13,2.52-11.42,1.8-18.63-1.56-57.22-5.53-59.03-6.13-2.28-.6-5.41-7.21-7.09-15.15-2.16-10.22-3.37-25.37-2.28-28.25l1.08-2.76h79.94l2.64,4.21c4.57,6.97,12.26,7.09,18.75.24l3.61-3.85,48.21.48c28.37.24,49.17.84,50.49,1.56,1.92,1.08,2.04,2.16,1.32,10.34-1.92,20.8-7.21,44.24-11.06,48.69-2.16,2.28-4.69,2.28-20.2.72Z"/>
    <path class="cls-1" d="M148.81,490.6c-11.9-.48-12.26-.72-13.34-10.34-.84-8.54-.96-8.54,29.21-17.67,8.9-2.76,20.56-6.49,25.97-8.42l9.74-3.37,3.85,3.01c2.28,1.8,6.13,3.37,9.26,3.73,4.69.48,5.65.12,8.9-3.37,1.92-2.16,3.61-4.57,3.61-5.53s.6-1.68,1.2-1.68c1.68,0,57.7-6.85,73.93-9.02,18.03-2.4,22.96-2.28,24.04.36.48,1.08,2.89,8.66,5.41,16.83,5.29,16.71,6.85,24.88,5.05,25.97-1.56.84-14.67,2.52-34.5,4.33-7.93.6-24.88,2.4-37.63,3.73l-23.32,2.52-3.73-3.37c-5.41-4.93-8.66-6.49-13.34-6.49-3.25,0-4.93.96-8.42,4.81l-4.33,4.81-25.49-.24c-14.07-.12-30.29-.48-36.06-.6h0Z"/>
    <path class="cls-1" d="M134.62,446.97c-2.52-1.56-14.67-37.39-13.22-39.07,1.56-1.8,6.13-3.49,31.14-11.42l19.72-6.25,3.37,2.52c1.92,1.44,4.69,2.52,6.37,2.52,3.49,0,7.93-4.21,7.93-7.45,0-1.2.24-2.16.6-2.16s7.45-1.32,15.87-3.01c8.54-1.56,22.48-4.33,31.02-5.89,8.66-1.56,24.04-4.57,34.26-6.73l18.63-3.73,2.4,3.01c4.57,5.65,18.99,35.22,18.27,37.15-.36,1.08-2.76,2.16-5.29,2.64-2.52.36-9.38,1.68-15.39,3.01-5.89,1.2-17.07,3.49-24.64,4.81-7.57,1.44-20.32,3.85-28.13,5.41l-14.43,2.76-5.77-2.89c-7.81-3.97-14.07-3.85-17.91.48-1.68,1.8-3.61,4.69-4.33,6.37-.84,2.04-2.64,3.37-4.81,3.85-1.8.36-10.1,2.52-18.39,4.93-32.58,9.26-35.82,10.1-37.27,9.14Z"/>
    <path class="cls-1" d="M108.54,362.46c-3.49-9.98-6.49-19.35-6.61-20.68-.48-3.13,3.13-4.81,18.51-8.42,6.85-1.68,14.19-3.61,16.35-4.33,3.49-1.2,4.33-.96,6.37,1.2,4.69,5.05,11.9,2.4,11.9-4.33,0-2.28-.12-2.28,59.51-12.98,9.26-1.68,20.68-3.85,25.25-4.69l8.42-1.68,4.69,4.93c4.57,5.05,21.16,29.21,21.16,31.14,0,.96-15.87,6.01-25.85,8.17-3.25.72-14.91,3.49-25.85,6.13-10.94,2.64-23.8,5.65-28.61,6.61-8.17,1.56-8.9,1.56-12.62-.72-7.09-4.33-14.07-2.04-15.99,5.29-.6,2.4-1.92,3.25-6.85,4.33-3.49.84-12.74,3.01-20.56,4.93s-16.23,3.49-18.63,3.49h-4.33l-6.25-18.39Z"/>
    <path class="cls-1" d="M94.35,310.88c-.24-.84-1.08-8.05-1.8-15.99-.72-7.93-1.68-16.11-2.04-18.27-1.2-7.21-.96-7.21,58.54-8.17,29.45-.36,57.46-1.2,62.27-1.68l8.9-.84,1.8,3.73c1.08,1.92,4.93,7.81,8.54,12.98s6.25,9.62,6.01,9.98c-.36.24-6.25,1.32-13.1,2.28-18.15,2.4-29.21,3.97-52.65,7.33l-20.8,2.89-3.13-3.01c-5.17-5.17-8.66-3.85-13.1,5.17-.24.72-30.65,5.05-34.98,5.05-2.16,0-4.09-.72-4.45-1.44h0Z"/>
    <path class="cls-1" d="M334.78,277.46c.36-.6-.36-1.2-1.68-1.2s-2.76-.6-3.25-1.32c-1.08-1.92,2.04-3.49,4.45-2.28,1.08.6,3.73.84,6.01.48,2.28-.24,5.77,0,7.69.6l3.61,1.08-4.33.12c-2.4.12-5.05.96-5.89,1.92-1.68,2.04-7.81,2.52-6.61.6Z"/>
    <path class="cls-1" d="M189.32,255.7c-13.1-.96-38.11-3.37-68.52-6.49-8.54-.84-18.27-2.28-21.64-3.25l-6.01-1.56.24-4.81c.24-2.64,1.08-7.21,2.04-10.22.84-3.01,2.89-9.74,4.45-15.03,1.44-5.29,3.13-10.1,3.61-10.7.48-.48,6.73.72,13.94,2.89,7.09,2.04,15.99,4.57,19.59,5.53,3.61.96,9.38,2.52,12.62,3.49,30.41,8.9,52.41,14.67,59.63,15.63l5.53.72.72,10.7c.48,5.89.96,11.42,1.08,12.26.48,1.92-8.9,2.28-27.29.84h0Z"/>
    <path class="cls-1" d="M201.95,221.56c-6.97-3.01-14.19-6.13-16.23-7.09-1.92-.96-6.85-3.13-10.82-4.81-3.97-1.56-14.79-6.25-24.04-10.34-9.26-4.09-19.47-8.66-22.84-10.1-9.26-4.09-13.82-6.73-13.82-8.05,0-.84,12.26-21.16,18.75-30.9.24-.48,17.07,10.7,34.14,22.72,7.57,5.29,15.99,11.06,18.63,12.74,13.1,8.42,26.45,17.67,26.81,18.63.24.48,1.32.96,2.4.84,1.32,0,1.44-.24.6-.72-.84-.24-1.56-1.2-1.56-1.8,0-1.8-10.34-11.66-45.08-42.92-5.29-4.81-10.1-9.86-10.82-11.42-.6-1.44-3.25-4.45-5.77-6.73-2.52-2.16-4.33-4.33-4.21-4.93.36-.96,29.21-23.92,30.05-23.92.24,0,2.89,3.61,5.77,8.17,3.01,4.45,5.65,8.29,6.01,8.66s3.73,5.89,7.57,12.5c10.82,18.63,33.78,53.5,35.34,53.5,2.64.24,3.01-2.4.84-5.65-2.04-3.01-14.91-31.86-14.91-33.42,0-.36-3.73-8.42-8.42-17.91-4.57-9.62-8.9-19.72-9.74-22.48-.72-2.89-1.68-5.65-2.28-6.37-.48-.6-1.2-2.52-1.56-4.21-.72-3.01-.36-3.13,19.35-8.78,11.06-3.13,20.44-5.65,20.8-5.65s1.44,4.21,2.28,9.26c.96,5.17,2.28,9.98,3.13,10.58.72.72,3.97,16.59,7.09,35.46,3.13,18.87,5.89,34.86,6.25,35.58.24.84-.6,1.8-2.04,2.28-1.32.48-6.61,3.49-11.54,6.85-10.46,6.97-17.43,15.51-22.84,27.89-1.92,4.33-3.73,7.93-4.09,7.93-.36-.12-6.25-2.52-13.22-5.41h0Z"/>
    <path class="cls-1" d="M259.29,172.88c-.48-4.33-1.32-19.11-2.04-33.06-.72-13.94-1.56-26.09-1.92-27.29-.36-1.08,0-2.28.6-2.64.72-.48.96-4.81.48-11.06l-.72-10.22,16.71.24c9.14.12,18.51.48,20.8.72l3.97.72-.36,13.82-.48,13.94,3.97.96c2.64.72,4.57.6,5.65-.24,1.2-1.08,6.49-13.22,9.38-21.88.48-1.2,1.68-2.16,2.76-2.16,2.04,0,28.37,10.34,38.35,15.15,7.81,3.73,19.96,14.91,17.43,15.99-1.08.36-3.85,2.28-6.25,4.09s-4.81,3.13-5.41,3.01c-.6-.24-2.89,1.44-5.05,3.61s-5.53,4.69-7.45,5.77c-1.92.96-3.49,2.16-3.49,2.76,0,1.92-7.33,2.52-10.58.84-1.8-.96-3.01-2.16-2.64-2.64.96-1.44-6.01-2.89-11.54-2.28-4.45.48-5.17.12-5.77-2.16-.96-3.49-6.49-7.45-10.1-7.09-1.56.12-3.97-.36-5.29-1.08-1.8-.96-2.89-.84-4.45.6-1.2,1.08-2.76,1.92-3.49,1.92-3.61,0-10.7,3.85-10.58,5.77,0,1.08-.72,2.16-1.92,2.4-1.32.24-2.16-.72-2.64-3.01-.6-2.52-1.8-3.73-4.93-4.69-3.61-1.2-4.21-.96-5.53,1.56-.84,1.56-1.92,2.76-2.52,2.76-.48,0-.96.84-.96,1.8s.6,1.8,1.32,1.8c.6,0,.96.48.6,1.08-.48.6-.12,1.32.6,1.56,1.56.48-1.08,7.09-3.37,8.54-2.16,1.32-1.92,8.66.24,10.94,1.92,1.92,2.52,6.13.72,4.93-.6-.36-1.68,2.16-2.16,5.65l-1.2,6.37-.72-7.81h0Z"/>
  </g>
  <path d="M384.67,223.49c-9.86-3.01-16.59-10.7-19.23-21.88-6.01-24.76,15.51-44,36.3-32.7,8.29,4.57,12.02,11.06,12.74,22.6.72,11.78-1.8,19.23-8.78,25.61-6.73,6.37-13.94,8.54-21.04,6.37h0ZM395.37,192.35c3.13-2.4,3.73-8.78,1.32-11.66-3.13-3.85-6.01-4.45-10.22-2.52-6.25,3.01-7.33,8.54-2.4,13.34,3.37,3.49,7.69,3.85,11.3.84Z"/>
</svg>